<svg version="1.1" viewBox="0.0 0.0 800.0 800.0" fill="none" stroke="none" stroke-linecap="square" stroke-miterlimit="10" xmlns:xlink="http://www.w3.org/1999/xlink" xmlns="http://www.w3.org/2000/svg"><clipPath id="g2f76fdf1813_0_0.0"><path d="m0 0l800.0 0l0 800.0l-800.0 0l0 -800.0z" clip-rule="nonzero"/></clipPath><g clip-path="url(#g2f76fdf1813_0_0.0)"><path fill="#000000" fill-opacity="0.0" d="m0 0l800.0 0l0 800.0l-800.0 0z" fill-rule="evenodd"/><path fill="#f0b7a4" d="m592.2221 139.6189l0 0c6.2438354 -6.2516937 16.36554 -6.250183 22.607544 0.0033721924l45.20685 45.290894l0 0c2.9974976 3.003067 4.6811523 7.0757294 4.680481 11.322067c-6.1035156E-4 4.246338 -1.6854248 8.318512 -4.683838 11.320679l-452.25525 452.8252c-6.24382 6.251709 -16.36554 6.250183 -22.607498 -0.0033569336l-45.206894 -45.290894c-6.2419586 -6.25354 -6.240448 -16.391052 0.0033721924 -22.642761z" fill-rule="evenodd"/><path fill="#f0b7a4" d="m207.77788 139.6189l0 0c-6.24382 -6.2516937 -16.36554 -6.250183 -22.607498 0.0033721924l-45.206894 45.290894l0 0c-2.9974976 3.003067 -4.681122 7.0757294 -4.680481 11.322067c6.2561035E-4 4.246338 1.6854706 8.318512 4.683853 11.320679l452.25525 452.8252c6.2438354 6.251709 16.36554 6.250183 22.607544 -0.0033569336l45.20685 -45.290894c6.2420044 -6.25354 6.2404785 -16.391052 -0.0033569336 -22.642761z" fill-rule="evenodd"/></g></svg>