<svg version="1.1" viewBox="0.0 0.0 800.0 800.0" fill="none" stroke="none" stroke-linecap="square" stroke-miterlimit="10" xmlns:xlink="http://www.w3.org/1999/xlink" xmlns="http://www.w3.org/2000/svg"><clipPath id="g2f76fdf1813_0_20.0"><path d="m0 0l800.0 0l0 800.0l-800.0 0l0 -800.0z" clip-rule="nonzero"/></clipPath><g clip-path="url(#g2f76fdf1813_0_20.0)"><path fill="#000000" fill-opacity="0.0" d="m0 0l800.0 0l0 800.0l-800.0 0z" fill-rule="evenodd"/><path fill="#568ea6" d="m720.07837 448.0l0 0c8.836792 0 15.988647 -7.163574 15.974121 -16.000305l-0.10498047 -63.99939l0 0c-0.006958008 -4.2435303 -1.6994019 -8.313263 -4.704956 -11.313934c-3.0055542 -3.0006409 -7.078064 -4.686371 -11.321655 -4.686371l-639.99927 0c-8.836746 0 -15.98859 7.163574 -15.974094 16.000305l0.10498428 63.99939c0.01449585 8.836731 7.18985 16.000305 16.026588 16.000305z" fill-rule="evenodd"/><path fill="#568ea6" d="m720.15717 256.0l0 0c8.836731 0 15.988586 -7.1635895 15.97406 -16.00032l-0.10498047 -63.99936l0 0c-0.006958008 -4.2435455 -1.6994019 -8.313293 -4.704956 -11.313934c-3.0055542 -3.0006409 -7.078064 -4.686386 -11.321655 -4.686386l-639.99927 0c-8.836746 0 -15.988594 7.1635895 -15.974098 16.00032l0.1049881 63.99936c0.01449585 8.836731 7.189842 16.00032 16.026588 16.00032z" fill-rule="evenodd"/><path fill="#568ea6" d="m720.15717 640.0l0 0c8.836731 0 15.988586 -7.163574 15.97406 -16.000305l-0.10498047 -63.99939l0 0c-0.006958008 -4.2435303 -1.6994019 -8.313293 -4.704956 -11.313904c-3.0055542 -3.0006714 -7.078064 -4.6864014 -11.321655 -4.6864014l-639.99927 0c-8.836746 0 -15.988594 7.163574 -15.974098 16.000305l0.1049881 63.99939c0.01449585 8.836731 7.189842 16.000305 16.026588 16.000305z" fill-rule="evenodd"/></g></svg>