<svg version="1.1" viewBox="0.0 0.0 800.0 800.0" fill="none" stroke="none" stroke-linecap="square" stroke-miterlimit="10" xmlns:xlink="http://www.w3.org/1999/xlink" xmlns="http://www.w3.org/2000/svg"><clipPath id="g2fa03f2eb9a_0_0.0"><path d="m0 0l800.0 0l0 800.0l-800.0 0l0 -800.0z" clip-rule="nonzero"/></clipPath><g clip-path="url(#g2fa03f2eb9a_0_0.0)"><path fill="#000000" fill-opacity="0.0" d="m0 0l800.0 0l0 800.0l-800.0 0z" fill-rule="evenodd"/><path fill="#6b7a89" d="m64.0 363.8376l0 0c0 -139.08879 150.43233 -251.84253 336.0 -251.84253l0 0c185.56769 0 336.0 112.75374 336.0 251.84253l0 0c0 139.08878 -150.43231 251.84253 -336.0 251.84253l0 0c-185.56767 0 -336.0 -112.75375 -336.0 -251.84253z" fill-rule="evenodd"/><path fill="#6b7a89" d="m318.9967 607.0443l0 0c0 -44.713318 36.726746 -80.96063 82.031494 -80.96063l0 0c21.756104 0 42.621124 8.529785 58.005035 23.71283c15.383881 15.183044 24.026459 35.775696 24.026459 57.247803l0 0c0 44.713318 -36.726746 80.96063 -82.031494 80.96063l0 0c-45.30475 0 -82.031494 -36.247314 -82.031494 -80.96063z" fill-rule="evenodd"/><path fill="#6b7a89" d="m436.89536 592.07544l0 0c0 -44.713318 36.726746 -80.9606 82.03146 -80.9606l0 0c21.756104 0 42.621155 8.529755 58.005066 23.7128c15.38385 15.183105 24.026428 35.775757 24.026428 57.247803l0 0c0 44.713318 -36.726746 80.96063 -82.031494 80.96063l0 0c-45.304718 0 -82.03146 -36.247314 -82.03146 -80.96063z" fill-rule="evenodd"/><path fill="#6b7a89" d="m204.03159 592.07544l0 0c0 -44.713318 36.726746 -80.9606 82.031494 -80.9606l0 0c21.756104 0 42.621155 8.529755 58.005035 23.7128c15.383881 15.183105 24.026459 35.775757 24.026459 57.247803l0 0c0 44.713318 -36.726746 80.96063 -82.031494 80.96063l0 0c-45.30475 0 -82.031494 -36.247314 -82.031494 -80.96063z" fill-rule="evenodd"/><path fill="#201e1f" d="m164.20807 382.82834l0 0c0 -67.50052 43.77739 -122.22046 97.77954 -122.22046l0 0c25.93274 0 50.803345 12.8767395 69.140564 35.797546c18.33722 22.920776 28.638947 54.008026 28.638947 86.42291l0 0c0 67.50049 -43.777374 122.22046 -97.77951 122.22046l0 0c-54.00215 0 -97.77954 -54.71997 -97.77954 -122.22046z" fill-rule="evenodd"/><path fill="#201e1f" d="m436.89536 382.82834l0 0c0 -67.50052 43.777374 -122.22046 97.77951 -122.22046l0 0c25.93274 0 50.803345 12.8767395 69.140564 35.797546c18.33722 22.920776 28.638977 54.008026 28.638977 86.42291l0 0c0 67.50049 -43.777405 122.22046 -97.77954 122.22046l0 0c-54.002136 0 -97.77951 -54.71997 -97.77951 -122.22046z" fill-rule="evenodd"/><path fill="#201e1f" d="m424.26004 530.79l0 0c-6.9579163 -18.699402 -21.059174 -31.249512 -31.496063 -28.031464l0 0c-5.011963 1.5453491 -8.491333 6.5946045 -9.672638 14.037018c-1.1813354 7.442383 0.032104492 16.668213 3.373413 25.64801l0 0c6.957947 18.699402 21.059204 31.249512 31.496063 28.031494l0 0c10.43689 -3.2180176 13.257141 -20.985657 6.299225 -39.68506z" fill-rule="evenodd"/><path fill="#201e1f" d="m367.03088 530.79l0 0c6.9579163 -18.699402 21.059204 -31.249512 31.496063 -28.031464l0 0c5.011963 1.5453491 8.491333 6.5946045 9.672668 14.037018c1.1813354 7.442383 -0.03213501 16.668213 -3.3734436 25.64801l0 0c-6.9579163 18.699402 -21.059204 31.249512 -31.496063 28.031494l0 0c-10.43689 -3.2180176 -13.257141 -20.985657 -6.299225 -39.68506z" fill-rule="evenodd"/><path fill="#6b7a89" d="m118.56605 267.2294l0 0c31.850777 -44.90143 122.279274 -39.128967 203.08676 12.963928c80.807495 52.092896 122.07843 131.22107 92.68735 177.70816l-42.540283 -26.902405c14.627441 -23.135864 -19.579285 -71.21756 -77.00131 -108.23477c-57.42206 -37.01718 -117.0072 -49.39853 -134.1297 -27.871155z" fill-rule="evenodd"/><path fill="#6b7a89" d="m681.43396 267.2294l0 0c-31.850769 -44.90143 -122.2793 -39.128967 -203.08676 12.963928c-80.807495 52.092896 -122.07843 131.22107 -92.68735 177.70816l42.540283 -26.902405c-14.627441 -23.135864 19.579285 -71.21756 77.00131 -108.23477c57.422028 -37.01718 117.00723 -49.39853 134.12973 -27.871155z" fill-rule="evenodd"/></g></svg>